<mxfile host="Electron" agent="Mozilla/5.0 (Windows NT 10.0; Win64; x64) AppleWebKit/537.36 (KHTML, like Gecko) draw.io/24.7.5 Chrome/126.0.6478.183 Electron/31.3.0 Safari/537.36" version="24.7.5">
  <diagram name="第 1 页" id="2QriNIWdTIV_ohWtYcBS">
    <mxGraphModel dx="2336" dy="2057" grid="1" gridSize="10" guides="1" tooltips="1" connect="1" arrows="1" fold="1" page="1" pageScale="1" pageWidth="827" pageHeight="1169" math="1" shadow="0">
      <root>
        <mxCell id="0" />
        <mxCell id="1" parent="0" />
        <mxCell id="j473QakYxw4qAwJ6yS87-1" value="" style="edgeStyle=orthogonalEdgeStyle;rounded=0;orthogonalLoop=1;jettySize=auto;html=1;" edge="1" parent="1" source="-4fo9mhIofs1G9srcdRc-1" target="-4fo9mhIofs1G9srcdRc-4">
          <mxGeometry relative="1" as="geometry" />
        </mxCell>
        <mxCell id="j473QakYxw4qAwJ6yS87-3" value="" style="edgeStyle=orthogonalEdgeStyle;rounded=0;orthogonalLoop=1;jettySize=auto;html=1;" edge="1" parent="1" source="-4fo9mhIofs1G9srcdRc-1" target="-4fo9mhIofs1G9srcdRc-5">
          <mxGeometry relative="1" as="geometry" />
        </mxCell>
        <mxCell id="-4fo9mhIofs1G9srcdRc-1" value="&lt;b&gt;PV - BEV&lt;/b&gt;" style="rounded=1;whiteSpace=wrap;html=1;labelBackgroundColor=none;fillColor=#f8cecc;strokeColor=#b85450;" parent="1" vertex="1">
          <mxGeometry x="310" y="220" width="120" height="60" as="geometry" />
        </mxCell>
        <mxCell id="j473QakYxw4qAwJ6yS87-2" value="" style="edgeStyle=orthogonalEdgeStyle;rounded=0;orthogonalLoop=1;jettySize=auto;html=1;" edge="1" parent="1" source="-4fo9mhIofs1G9srcdRc-4" target="-4fo9mhIofs1G9srcdRc-6">
          <mxGeometry relative="1" as="geometry" />
        </mxCell>
        <mxCell id="-4fo9mhIofs1G9srcdRc-4" value="&lt;b&gt;GeometryDriven&lt;/b&gt;" style="rounded=1;whiteSpace=wrap;html=1;labelBackgroundColor=none;fillColor=#ffcc99;strokeColor=#36393d;" parent="1" vertex="1">
          <mxGeometry x="310" y="130" width="120" height="60" as="geometry" />
        </mxCell>
        <mxCell id="j473QakYxw4qAwJ6yS87-18" style="edgeStyle=orthogonalEdgeStyle;rounded=0;orthogonalLoop=1;jettySize=auto;html=1;entryX=1;entryY=0.5;entryDx=0;entryDy=0;" edge="1" parent="1" source="-4fo9mhIofs1G9srcdRc-5" target="j473QakYxw4qAwJ6yS87-4">
          <mxGeometry relative="1" as="geometry" />
        </mxCell>
        <mxCell id="j473QakYxw4qAwJ6yS87-19" value="" style="edgeStyle=orthogonalEdgeStyle;rounded=0;orthogonalLoop=1;jettySize=auto;html=1;" edge="1" parent="1" source="-4fo9mhIofs1G9srcdRc-5" target="j473QakYxw4qAwJ6yS87-5">
          <mxGeometry relative="1" as="geometry" />
        </mxCell>
        <mxCell id="j473QakYxw4qAwJ6yS87-20" value="" style="edgeStyle=orthogonalEdgeStyle;rounded=0;orthogonalLoop=1;jettySize=auto;html=1;" edge="1" parent="1" source="-4fo9mhIofs1G9srcdRc-5" target="j473QakYxw4qAwJ6yS87-6">
          <mxGeometry relative="1" as="geometry" />
        </mxCell>
        <mxCell id="-4fo9mhIofs1G9srcdRc-5" value="&lt;b&gt;DataDriven&lt;/b&gt;" style="rounded=1;whiteSpace=wrap;html=1;labelBackgroundColor=none;fillColor=#ffcc99;strokeColor=#36393d;" parent="1" vertex="1">
          <mxGeometry x="310" y="310" width="120" height="60" as="geometry" />
        </mxCell>
        <mxCell id="j473QakYxw4qAwJ6yS87-12" style="edgeStyle=orthogonalEdgeStyle;rounded=0;orthogonalLoop=1;jettySize=auto;html=1;exitX=0;exitY=0.5;exitDx=0;exitDy=0;entryX=1;entryY=0.5;entryDx=0;entryDy=0;" edge="1" parent="1" source="-4fo9mhIofs1G9srcdRc-6" target="j473QakYxw4qAwJ6yS87-8">
          <mxGeometry relative="1" as="geometry" />
        </mxCell>
        <mxCell id="j473QakYxw4qAwJ6yS87-14" style="edgeStyle=orthogonalEdgeStyle;rounded=0;orthogonalLoop=1;jettySize=auto;html=1;entryX=0;entryY=0.75;entryDx=0;entryDy=0;" edge="1" parent="1" source="-4fo9mhIofs1G9srcdRc-6" target="j473QakYxw4qAwJ6yS87-7">
          <mxGeometry relative="1" as="geometry" />
        </mxCell>
        <mxCell id="j473QakYxw4qAwJ6yS87-15" style="edgeStyle=orthogonalEdgeStyle;rounded=0;orthogonalLoop=1;jettySize=auto;html=1;entryX=0;entryY=0.5;entryDx=0;entryDy=0;" edge="1" parent="1" source="-4fo9mhIofs1G9srcdRc-6" target="j473QakYxw4qAwJ6yS87-13">
          <mxGeometry relative="1" as="geometry" />
        </mxCell>
        <mxCell id="j473QakYxw4qAwJ6yS87-17" style="edgeStyle=orthogonalEdgeStyle;rounded=0;orthogonalLoop=1;jettySize=auto;html=1;entryX=0;entryY=0.5;entryDx=0;entryDy=0;" edge="1" parent="1" source="-4fo9mhIofs1G9srcdRc-6" target="j473QakYxw4qAwJ6yS87-16">
          <mxGeometry relative="1" as="geometry" />
        </mxCell>
        <mxCell id="-4fo9mhIofs1G9srcdRc-6" value="&lt;b&gt;&lt;font color=&quot;#6666ff&quot;&gt;Homograph based&lt;/font&gt;&lt;/b&gt;" style="rounded=1;whiteSpace=wrap;html=1;labelBackgroundColor=none;fillColor=#cdeb8b;strokeColor=#36393d;" parent="1" vertex="1">
          <mxGeometry x="310" y="40" width="120" height="60" as="geometry" />
        </mxCell>
        <mxCell id="j473QakYxw4qAwJ6yS87-28" style="edgeStyle=orthogonalEdgeStyle;rounded=0;orthogonalLoop=1;jettySize=auto;html=1;entryX=1;entryY=0.5;entryDx=0;entryDy=0;" edge="1" parent="1" source="j473QakYxw4qAwJ6yS87-4" target="j473QakYxw4qAwJ6yS87-21">
          <mxGeometry relative="1" as="geometry" />
        </mxCell>
        <mxCell id="j473QakYxw4qAwJ6yS87-29" style="edgeStyle=orthogonalEdgeStyle;rounded=0;orthogonalLoop=1;jettySize=auto;html=1;entryX=1;entryY=0.5;entryDx=0;entryDy=0;" edge="1" parent="1" source="j473QakYxw4qAwJ6yS87-4" target="j473QakYxw4qAwJ6yS87-22">
          <mxGeometry relative="1" as="geometry" />
        </mxCell>
        <mxCell id="j473QakYxw4qAwJ6yS87-4" value="&lt;b&gt;&lt;font color=&quot;#6666ff&quot;&gt;Depth based&lt;/font&gt;&lt;/b&gt;" style="rounded=1;whiteSpace=wrap;html=1;labelBackgroundColor=none;fillColor=#cdeb8b;strokeColor=#36393d;" vertex="1" parent="1">
          <mxGeometry x="130" y="310" width="120" height="60" as="geometry" />
        </mxCell>
        <mxCell id="j473QakYxw4qAwJ6yS87-5" value="&lt;b&gt;&lt;font color=&quot;#6666ff&quot;&gt;MLP based&lt;/font&gt;&lt;/b&gt;" style="rounded=1;whiteSpace=wrap;html=1;labelBackgroundColor=none;fillColor=#cdeb8b;strokeColor=#36393d;" vertex="1" parent="1">
          <mxGeometry x="310" y="400" width="120" height="60" as="geometry" />
        </mxCell>
        <mxCell id="j473QakYxw4qAwJ6yS87-6" value="&lt;b&gt;&lt;font color=&quot;#6666ff&quot;&gt;Transformer based&lt;/font&gt;&lt;/b&gt;" style="rounded=1;whiteSpace=wrap;html=1;labelBackgroundColor=none;fillColor=#cdeb8b;strokeColor=#36393d;" vertex="1" parent="1">
          <mxGeometry x="480" y="310" width="120" height="60" as="geometry" />
        </mxCell>
        <mxCell id="j473QakYxw4qAwJ6yS87-7" value="&lt;b&gt;Good Interpretability&lt;/b&gt;" style="rounded=1;whiteSpace=wrap;html=1;labelBackgroundColor=none;fillColor=#e1d5e7;strokeColor=#9673a6;" vertex="1" parent="1">
          <mxGeometry x="480" y="-30" width="120" height="60" as="geometry" />
        </mxCell>
        <mxCell id="j473QakYxw4qAwJ6yS87-8" value="Methods" style="swimlane;fontStyle=0;childLayout=stackLayout;horizontal=1;startSize=30;horizontalStack=0;resizeParent=1;resizeParentMax=0;resizeLast=0;collapsible=1;marginBottom=0;whiteSpace=wrap;html=1;fillColor=#dae8fc;strokeColor=#6c8ebf;" vertex="1" parent="1">
          <mxGeometry x="130" y="10" width="140" height="120" as="geometry" />
        </mxCell>
        <mxCell id="j473QakYxw4qAwJ6yS87-9" value="IPM" style="text;strokeColor=none;fillColor=none;align=left;verticalAlign=middle;spacingLeft=4;spacingRight=4;overflow=hidden;points=[[0,0.5],[1,0.5]];portConstraint=eastwest;rotatable=0;whiteSpace=wrap;html=1;fontStyle=1" vertex="1" parent="j473QakYxw4qAwJ6yS87-8">
          <mxGeometry y="30" width="140" height="30" as="geometry" />
        </mxCell>
        <mxCell id="j473QakYxw4qAwJ6yS87-10" value="BridgeGAN" style="text;strokeColor=none;fillColor=none;align=left;verticalAlign=middle;spacingLeft=4;spacingRight=4;overflow=hidden;points=[[0,0.5],[1,0.5]];portConstraint=eastwest;rotatable=0;whiteSpace=wrap;html=1;" vertex="1" parent="j473QakYxw4qAwJ6yS87-8">
          <mxGeometry y="60" width="140" height="30" as="geometry" />
        </mxCell>
        <mxCell id="j473QakYxw4qAwJ6yS87-11" value="3D-LaneNet" style="text;strokeColor=none;fillColor=none;align=left;verticalAlign=middle;spacingLeft=4;spacingRight=4;overflow=hidden;points=[[0,0.5],[1,0.5]];portConstraint=eastwest;rotatable=0;whiteSpace=wrap;html=1;" vertex="1" parent="j473QakYxw4qAwJ6yS87-8">
          <mxGeometry y="90" width="140" height="30" as="geometry" />
        </mxCell>
        <mxCell id="j473QakYxw4qAwJ6yS87-13" value="&lt;b&gt;Rely on &lt;br&gt;rigid flat-ground&lt;br&gt;assumption&lt;/b&gt;" style="rounded=1;whiteSpace=wrap;html=1;labelBackgroundColor=none;fillColor=#e1d5e7;strokeColor=#9673a6;" vertex="1" parent="1">
          <mxGeometry x="480" y="110" width="120" height="60" as="geometry" />
        </mxCell>
        <mxCell id="j473QakYxw4qAwJ6yS87-16" value="&lt;b&gt;Utilize semantic info and GAN to minimize distortion&lt;/b&gt;" style="rounded=1;whiteSpace=wrap;html=1;labelBackgroundColor=none;fillColor=#e1d5e7;strokeColor=#9673a6;" vertex="1" parent="1">
          <mxGeometry x="480" y="40" width="120" height="60" as="geometry" />
        </mxCell>
        <mxCell id="j473QakYxw4qAwJ6yS87-34" style="edgeStyle=orthogonalEdgeStyle;rounded=0;orthogonalLoop=1;jettySize=auto;html=1;" edge="1" parent="1" source="j473QakYxw4qAwJ6yS87-21" target="j473QakYxw4qAwJ6yS87-24">
          <mxGeometry relative="1" as="geometry">
            <Array as="points">
              <mxPoint x="-90" y="190" />
              <mxPoint x="-90" y="190" />
            </Array>
          </mxGeometry>
        </mxCell>
        <mxCell id="j473QakYxw4qAwJ6yS87-49" style="edgeStyle=orthogonalEdgeStyle;rounded=0;orthogonalLoop=1;jettySize=auto;html=1;entryX=1;entryY=0.5;entryDx=0;entryDy=0;" edge="1" parent="1" source="j473QakYxw4qAwJ6yS87-21" target="j473QakYxw4qAwJ6yS87-36">
          <mxGeometry relative="1" as="geometry">
            <Array as="points">
              <mxPoint x="10" y="110" />
              <mxPoint x="-50" y="110" />
            </Array>
          </mxGeometry>
        </mxCell>
        <mxCell id="j473QakYxw4qAwJ6yS87-53" style="edgeStyle=orthogonalEdgeStyle;rounded=0;orthogonalLoop=1;jettySize=auto;html=1;entryX=1;entryY=0.5;entryDx=0;entryDy=0;" edge="1" parent="1" source="j473QakYxw4qAwJ6yS87-21" target="j473QakYxw4qAwJ6yS87-37">
          <mxGeometry relative="1" as="geometry">
            <Array as="points">
              <mxPoint x="10" y="270" />
            </Array>
          </mxGeometry>
        </mxCell>
        <mxCell id="j473QakYxw4qAwJ6yS87-21" value="Point based" style="rounded=1;whiteSpace=wrap;html=1;fillColor=#ffff88;strokeColor=#36393d;fontStyle=1" vertex="1" parent="1">
          <mxGeometry x="-50" y="160" width="120" height="60" as="geometry" />
        </mxCell>
        <mxCell id="j473QakYxw4qAwJ6yS87-22" value="Voxel based" style="rounded=1;whiteSpace=wrap;html=1;fillColor=#ffff88;strokeColor=#36393d;fontStyle=1" vertex="1" parent="1">
          <mxGeometry x="-50" y="470" width="120" height="60" as="geometry" />
        </mxCell>
        <mxCell id="j473QakYxw4qAwJ6yS87-23" value="Methods" style="swimlane;fontStyle=0;childLayout=stackLayout;horizontal=1;startSize=30;horizontalStack=0;resizeParent=1;resizeParentMax=0;resizeLast=0;collapsible=1;marginBottom=0;whiteSpace=wrap;html=1;fillColor=#dae8fc;strokeColor=#6c8ebf;" vertex="1" parent="1">
          <mxGeometry x="-350" y="140" width="140" height="120" as="geometry" />
        </mxCell>
        <mxCell id="j473QakYxw4qAwJ6yS87-24" value="Pseudo-LiDAR" style="text;strokeColor=none;fillColor=none;align=left;verticalAlign=middle;spacingLeft=4;spacingRight=4;overflow=hidden;points=[[0,0.5],[1,0.5]];portConstraint=eastwest;rotatable=0;whiteSpace=wrap;html=1;fontStyle=1" vertex="1" parent="j473QakYxw4qAwJ6yS87-23">
          <mxGeometry y="30" width="140" height="30" as="geometry" />
        </mxCell>
        <mxCell id="j473QakYxw4qAwJ6yS87-25" value="Pseudo-LiDAR++" style="text;strokeColor=none;fillColor=none;align=left;verticalAlign=middle;spacingLeft=4;spacingRight=4;overflow=hidden;points=[[0,0.5],[1,0.5]];portConstraint=eastwest;rotatable=0;whiteSpace=wrap;html=1;" vertex="1" parent="j473QakYxw4qAwJ6yS87-23">
          <mxGeometry y="60" width="140" height="30" as="geometry" />
        </mxCell>
        <mxCell id="j473QakYxw4qAwJ6yS87-26" value="PatchNet" style="text;strokeColor=none;fillColor=none;align=left;verticalAlign=middle;spacingLeft=4;spacingRight=4;overflow=hidden;points=[[0,0.5],[1,0.5]];portConstraint=eastwest;rotatable=0;whiteSpace=wrap;html=1;" vertex="1" parent="j473QakYxw4qAwJ6yS87-23">
          <mxGeometry y="90" width="140" height="30" as="geometry" />
        </mxCell>
        <mxCell id="j473QakYxw4qAwJ6yS87-35" value="&lt;b&gt;Complex pipeline&lt;/b&gt;" style="rounded=1;whiteSpace=wrap;html=1;labelBackgroundColor=none;fillColor=#e1d5e7;strokeColor=#9673a6;" vertex="1" parent="1">
          <mxGeometry x="-180" y="320" width="120" height="60" as="geometry" />
        </mxCell>
        <mxCell id="j473QakYxw4qAwJ6yS87-55" value="" style="edgeStyle=orthogonalEdgeStyle;rounded=0;orthogonalLoop=1;jettySize=auto;html=1;" edge="1" parent="1" source="j473QakYxw4qAwJ6yS87-36" target="j473QakYxw4qAwJ6yS87-38">
          <mxGeometry relative="1" as="geometry" />
        </mxCell>
        <mxCell id="j473QakYxw4qAwJ6yS87-36" value="&lt;b&gt;Denser points with large computation burden&lt;/b&gt;" style="rounded=1;whiteSpace=wrap;html=1;labelBackgroundColor=none;fillColor=#e1d5e7;strokeColor=#9673a6;" vertex="1" parent="1">
          <mxGeometry x="-180" y="80" width="120" height="60" as="geometry" />
        </mxCell>
        <mxCell id="j473QakYxw4qAwJ6yS87-56" value="" style="edgeStyle=orthogonalEdgeStyle;rounded=0;orthogonalLoop=1;jettySize=auto;html=1;" edge="1" parent="1" source="j473QakYxw4qAwJ6yS87-37" target="j473QakYxw4qAwJ6yS87-35">
          <mxGeometry relative="1" as="geometry" />
        </mxCell>
        <mxCell id="j473QakYxw4qAwJ6yS87-37" value="&lt;b&gt;Data leakage&lt;/b&gt;" style="rounded=1;whiteSpace=wrap;html=1;labelBackgroundColor=none;fillColor=#e1d5e7;strokeColor=#9673a6;" vertex="1" parent="1">
          <mxGeometry x="-180" y="240" width="120" height="60" as="geometry" />
        </mxCell>
        <mxCell id="j473QakYxw4qAwJ6yS87-38" value="&lt;b&gt;Low accuracy&lt;/b&gt;" style="rounded=1;whiteSpace=wrap;html=1;labelBackgroundColor=none;fillColor=#e1d5e7;strokeColor=#9673a6;" vertex="1" parent="1">
          <mxGeometry x="-180" width="120" height="60" as="geometry" />
        </mxCell>
      </root>
    </mxGraphModel>
  </diagram>
</mxfile>
